<?xml version="1.0" encoding="UTF-8"?>
<!DOCTYPE svg PUBLIC "-//W3C//DTD SVG 1.1//EN" "http://www.w3.org/Graphics/SVG/1.1/DTD/svg11.dtd">
<svg xmlns="http://www.w3.org/2000/svg" version="1.1" width="90px" height="77px" style="shape-rendering:geometricPrecision; text-rendering:geometricPrecision; image-rendering:optimizeQuality; fill-rule:evenodd; clip-rule:evenodd" xmlns:xlink="http://www.w3.org/1999/xlink">
<g><path style="opacity:0.651" fill="#fefefe" d="M 34.5,2.5 C 38.8306,1.45115 40.9973,3.11781 41,7.5C 41.412,3.5967 43.5786,1.93003 47.5,2.5C 47.2605,6.84223 46.9272,11.1756 46.5,15.5C 45.1667,15.5 43.8333,15.5 42.5,15.5C 42.5408,11.7566 41.8741,11.5899 40.5,15C 39.552,15.4828 38.552,15.6495 37.5,15.5C 37.1667,11.5 36.8333,11.5 36.5,15.5C 35.1667,15.5 33.8333,15.5 32.5,15.5C 33.1667,11.1667 33.8333,6.83333 34.5,2.5 Z"/></g>
<g><path style="opacity:0.693" fill="#fef200" d="M 35.5,24.5 C 36.0476,26.3936 37.0476,28.0603 38.5,29.5C 44.3143,23.5908 51.3143,20.4241 59.5,20C 45.601,27.9625 39.9344,39.7959 42.5,55.5C 41.596,56.209 41.2627,57.209 41.5,58.5C 40.7347,61.0961 40.4013,63.7628 40.5,66.5C 40.1667,66.5 39.8333,66.5 39.5,66.5C 39.3259,64.139 38.9926,61.8056 38.5,59.5C 38.6716,58.5084 38.3382,57.8417 37.5,57.5C 37.5,56.8333 37.5,56.1667 37.5,55.5C 34.8458,40.6954 29.1791,27.1954 20.5,15C 20.8499,13.7425 21.5165,13.4092 22.5,14C 27.2865,16.9547 31.6199,20.4547 35.5,24.5 Z"/></g>
<g><path style="opacity:0.582" fill="#03a200" d="M 35.5,24.5 C 34.3159,19.3598 36.3159,17.6931 41.5,19.5C 42.6301,24.697 40.6301,26.3637 35.5,24.5 Z"/></g>
<g><path style="opacity:0.6" fill="#fefefe" d="M 14.5,47.5 C 13.8333,47.5 13.5,47.8333 13.5,48.5C 10.9592,49.6489 8.45923,49.6489 6,48.5C 5.31621,47.2161 5.48288,46.0495 6.5,45C 7.83333,45 9.16667,45 10.5,45C 5.80658,42.3113 5.47324,39.3113 9.5,36C 11.4727,35.5045 13.4727,35.3379 15.5,35.5C 15.5,36.8333 15.5,38.1667 15.5,39.5C 14.1266,39.3433 12.7932,39.51 11.5,40C 14.9008,41.6243 15.9008,44.1243 14.5,47.5 Z"/></g>
<g><path style="opacity:0.639" fill="#fefefe" d="M 66.5,49.5 C 66.5,48.8333 66.5,48.1667 66.5,47.5C 66.4693,43.516 67.136,39.6827 68.5,36C 72.3761,34.7955 75.3761,35.7955 77.5,39C 76.76,41.9637 75.76,44.9637 74.5,48C 71.9865,49.2525 69.3198,49.7525 66.5,49.5 Z"/></g>
<g><path style="opacity:0.637" fill="#03a300" d="M 17.5,37.5 C 22.5197,36.905 24.1864,38.905 22.5,43.5C 19.2249,45.2145 16.8916,44.3811 15.5,41C 16.305,39.8873 16.9717,38.7206 17.5,37.5 Z"/></g>
<g><path style="opacity:0.555" fill="#03a300" d="M 57.5,37.5 C 62.0057,36.5272 64.1724,38.1939 64,42.5C 60.813,45.4115 58.313,44.9115 56.5,41C 56.9891,39.8615 57.3225,38.6948 57.5,37.5 Z"/></g>
<g><path style="opacity:0.808" fill="#0badee" d="M 66.5,47.5 C 66.5,48.1667 66.5,48.8333 66.5,49.5C 64.9142,50.1481 63.2475,50.6481 61.5,51C 65.1667,51.3333 68.8333,51.6667 72.5,52C 66.4881,57.7736 59.6548,58.9403 52,55.5C 50.4815,56.1634 49.3149,57.1634 48.5,58.5C 47.8333,58.5 47.5,58.8333 47.5,59.5C 46.8333,59.5 46.5,59.8333 46.5,60.5C 46.5,60.8333 46.5,61.1667 46.5,61.5C 45.8333,61.5 45.5,61.8333 45.5,62.5C 44.6618,62.8417 44.3284,63.5084 44.5,64.5C 43.8333,64.5 43.5,64.8333 43.5,65.5C 42.6618,65.8417 42.3284,66.5084 42.5,67.5C 42.5,68.1667 42.1667,68.5 41.5,68.5C 40.6618,68.1583 40.3284,67.4916 40.5,66.5C 40.4013,63.7628 40.7347,61.0961 41.5,58.5C 42.404,57.791 42.7373,56.791 42.5,55.5C 44.7101,49.7756 48.3768,45.1089 53.5,41.5C 56.4321,46.4653 60.7655,48.4653 66.5,47.5 Z"/></g>
<g><path style="opacity:0.819" fill="#ec0461" d="M 37.5,55.5 C 37.5,56.1667 37.5,56.8333 37.5,57.5C 37.3284,58.4916 37.6618,59.1583 38.5,59.5C 38.9926,61.8056 39.3259,64.139 39.5,66.5C 39.5,67.8333 38.8333,68.5 37.5,68.5C 37.5,68.1667 37.5,67.8333 37.5,67.5C 37.5,66.8333 37.1667,66.5 36.5,66.5C 36.5,66.1667 36.5,65.8333 36.5,65.5C 36.5,64.8333 36.1667,64.5 35.5,64.5C 35.6716,63.5084 35.3382,62.8417 34.5,62.5C 34.5,61.8333 34.1667,61.5 33.5,61.5C 33.6716,60.5084 33.3382,59.8417 32.5,59.5C 32.5,58.8333 32.1667,58.5 31.5,58.5C 31.1583,57.6618 30.4916,57.3284 29.5,57.5C 29.2172,56.7109 28.7172,56.0442 28,55.5C 20.3452,58.9403 13.5119,57.7736 7.5,52C 11.1667,51.6667 14.8333,51.3333 18.5,51C 16.3474,50.9005 14.6808,50.0672 13.5,48.5C 14.1667,48.5 14.5,48.1667 14.5,47.5C 19.842,48.1623 23.842,46.1623 26.5,41.5C 31.1403,45.4712 34.8069,50.1379 37.5,55.5 Z"/></g>
<g><path style="opacity:0.491" fill="#0aa301" d="M 44.5,69.5 C 43.8333,69.5 43.5,69.8333 43.5,70.5C 42.6618,70.8417 42.3284,71.5084 42.5,72.5C 41.8333,72.5 41.5,72.8333 41.5,73.5C 40.8333,73.5 40.1667,73.5 39.5,73.5C 39.5,73.1667 39.5,72.8333 39.5,72.5C 40.6737,71.4863 41.3404,70.153 41.5,68.5C 42.1667,68.5 42.5,68.1667 42.5,67.5C 43.3382,67.1583 43.6716,66.4916 43.5,65.5C 44.1667,65.5 44.5,65.1667 44.5,64.5C 45.3382,64.1583 45.6716,63.4916 45.5,62.5C 46.1667,62.5 46.5,62.1667 46.5,61.5C 46.5,61.1667 46.5,60.8333 46.5,60.5C 47.1667,60.5 47.5,60.1667 47.5,59.5C 48.1667,59.5 48.5,59.1667 48.5,58.5C 50.5405,57.4808 52.5405,57.4808 54.5,58.5C 50.4679,61.59 47.1346,65.2567 44.5,69.5 Z"/></g>
<g><path style="opacity:0.505" fill="#05a400" d="M 29.5,57.5 C 29.8417,58.3382 30.5084,58.6716 31.5,58.5C 32.1667,58.5 32.5,58.8333 32.5,59.5C 32.3284,60.4916 32.6618,61.1583 33.5,61.5C 34.1667,61.5 34.5,61.8333 34.5,62.5C 34.3284,63.4916 34.6618,64.1583 35.5,64.5C 36.1667,64.5 36.5,64.8333 36.5,65.5C 36.5,65.8333 36.5,66.1667 36.5,66.5C 37.1667,66.5 37.5,66.8333 37.5,67.5C 37.5,67.8333 37.5,68.1667 37.5,68.5C 38.6005,69.6049 39.2671,70.9382 39.5,72.5C 38.8333,72.5 38.1667,72.5 37.5,72.5C 37.5,71.8333 37.1667,71.5 36.5,71.5C 36.6716,70.5084 36.3382,69.8417 35.5,69.5C 32.3981,65.6349 29.0648,61.9682 25.5,58.5C 26.6888,57.5713 28.0222,57.238 29.5,57.5 Z"/></g>
<g><path style="opacity:0.416" fill="#0ea202" d="M 35.5,69.5 C 35.3284,70.4916 35.6618,71.1583 36.5,71.5C 36.5,71.8333 36.5,72.1667 36.5,72.5C 36.1667,72.5 35.8333,72.5 35.5,72.5C 28.9007,72.7573 21.9007,72.424 14.5,71.5C 16.3052,69.8031 18.6385,68.9698 21.5,69C 13.5,67.3333 13.5,65.6667 21.5,64C 16.6424,62.736 16.4757,61.5693 21,60.5C 22.6268,60.6251 24.1268,61.1251 25.5,62C 28.714,64.7614 32.0473,67.2614 35.5,69.5 Z"/></g>
<g><path style="opacity:0.422" fill="#04a306" d="M 65.5,71.5 C 58.0613,72.4307 51.0613,72.7641 44.5,72.5C 44.1667,72.5 43.8333,72.5 43.5,72.5C 43.5,71.8333 43.5,71.1667 43.5,70.5C 44.1667,70.5 44.5,70.1667 44.5,69.5C 47.9527,67.2614 51.286,64.7614 54.5,62C 56.7689,60.4424 59.1022,60.2757 61.5,61.5C 60.91,62.7989 59.91,63.6322 58.5,64C 66.5,65.6667 66.5,67.3333 58.5,69C 61.3615,68.9698 63.6948,69.8031 65.5,71.5 Z"/></g>
<g><path style="opacity:0.387" fill="#0aace8" d="M 65.5,71.5 C 66.9953,71.4148 67.9953,72.0815 68.5,73.5C 60.5277,74.4977 52.5277,74.831 44.5,74.5C 44.5,73.8333 44.5,73.1667 44.5,72.5C 51.0613,72.7641 58.0613,72.4307 65.5,71.5 Z"/></g>
<g><path style="opacity:0.406" fill="#e70a60" d="M 14.5,71.5 C 21.9007,72.424 28.9007,72.7573 35.5,72.5C 35.5,73.1667 35.5,73.8333 35.5,74.5C 27.4723,74.831 19.4723,74.4977 11.5,73.5C 12.0047,72.0815 13.0047,71.4148 14.5,71.5 Z"/></g>
<g><path style="opacity:0.307" fill="#f9ee0f" d="M 35.5,72.5 C 35.8333,72.5 36.1667,72.5 36.5,72.5C 36.8333,72.5 37.1667,72.5 37.5,72.5C 37.8417,73.3382 38.5084,73.6716 39.5,73.5C 40.1667,73.5 40.8333,73.5 41.5,73.5C 42.1667,73.5 42.5,73.1667 42.5,72.5C 42.8333,72.5 43.1667,72.5 43.5,72.5C 43.8333,72.5 44.1667,72.5 44.5,72.5C 44.5,73.1667 44.5,73.8333 44.5,74.5C 43.8333,75.1667 43.1667,75.8333 42.5,76.5C 40.8333,76.5 39.1667,76.5 37.5,76.5C 36.8333,75.8333 36.1667,75.1667 35.5,74.5C 35.5,73.8333 35.5,73.1667 35.5,72.5 Z"/></g>
</svg>
